# xmcd
#
# Track frame offsets:
#	150
#	14979
#	37243
#	58960
#	77729
#	95916
#	114040
#	133030
#	150026
#	170474
#	191151
#	209471
#	228665
#	249542
#	266751
#	287148
#	303940
#	316637
#	331180
#
# Disc length: 4639 seconds
#
# Revision: 0
# Processed by: cddbd v1.5.2PL0 Copyright (c) Steve Scherf et al.
# Submitted via: dBpowerAMP V4.0
#
DISCID=12121d13
DTITLE=Various Artist - nwelly
DYEAR=1900
DGENRE=
TTITLE0=fgj
TTITLE1=gf
TTITLE2=d
TTITLE3=df
TTITLE4=b
TTITLE5=m
TTITLE6=bv
TTITLE7=fjk - c
TTITLE8=tg
TTITLE9=y
TTITLE10=ui
TTITLE11=pio
TTITLE12=[o
TTITLE13=oo
TTITLE14=[[
TTITLE15=Trackrr16
TTITLE16=e
TTITLE17=w
TTITLE18=qq
EXTD=
EXTT0=
EXTT1=
EXTT2=
EXTT3=
EXTT4=
EXTT5=
EXTT6=
EXTT7=
EXTT8=
EXTT9=
EXTT10=
EXTT11=
EXTT12=
EXTT13=
EXTT14=
EXTT15=
EXTT16=
EXTT17=
EXTT18=
PLAYORDER=
